<?xml version="1.0" encoding="UTF-8"?>
<svg xmlns="http://www.w3.org/2000/svg" xmlns:xlink="http://www.w3.org/1999/xlink" width="30px" height="30px" viewBox="0 0 30 30" version="1.1">
<g id="surface1">
<path style=" stroke:none;fill-rule:nonzero;fill:rgb(36.078431%,41.960784%,75.294118%);fill-opacity:1;" d="M 15 0 C 6.714844 0 0 6.742188 0 15.058594 C -0.0078125 21.535156 4.125 27.285156 10.261719 29.347656 C 11.011719 29.488281 11.285156 29.023438 11.285156 28.625 C 11.285156 28.265625 11.269531 27.320312 11.261719 26.0625 C 7.089844 26.972656 6.210938 24.042969 6.210938 24.042969 C 5.53125 22.304688 4.546875 21.839844 4.546875 21.839844 C 3.183594 20.90625 4.644531 20.925781 4.644531 20.925781 C 6.152344 21.03125 6.941406 22.476562 6.941406 22.476562 C 8.28125 24.777344 10.453125 24.113281 11.308594 23.726562 C 11.445312 22.753906 11.832031 22.089844 12.261719 21.714844 C 8.933594 21.332031 5.429688 20.042969 5.429688 14.273438 C 5.429688 12.628906 6.015625 11.285156 6.976562 10.230469 C 6.820312 9.847656 6.304688 8.316406 7.121094 6.246094 C 7.121094 6.246094 8.382812 5.839844 11.246094 7.789062 C 12.46875 7.453125 13.734375 7.285156 15 7.28125 C 16.269531 7.285156 17.535156 7.457031 18.757812 7.789062 C 21.621094 5.84375 22.878906 6.246094 22.878906 6.246094 C 23.695312 8.320312 23.183594 9.851562 23.027344 10.230469 C 23.992188 11.285156 24.570312 12.628906 24.570312 14.273438 C 24.570312 20.058594 21.0625 21.332031 17.722656 21.703125 C 18.261719 22.171875 18.742188 23.089844 18.742188 24.492188 C 18.742188 26.507812 18.722656 28.128906 18.722656 28.625 C 18.722656 29.027344 18.992188 29.496094 19.753906 29.347656 C 25.882812 27.28125 30.007812 21.527344 30 15.058594 C 30 6.742188 23.285156 0 15 0 Z M 15 0 "/>
</g>
</svg>
