<?xml version="1.0" encoding="UTF-8"?>
<svg xmlns="http://www.w3.org/2000/svg" xmlns:xlink="http://www.w3.org/1999/xlink" width="30px" height="30px" viewBox="0 0 30 30" version="1.1">
<defs>
<radialGradient id="radial0" gradientUnits="userSpaceOnUse" cx="6.601" cy="99.766" fx="6.601" fy="99.766" r="129.502" gradientTransform="matrix(0.294118,0,0,0.294118,0,0)">
<stop offset="0.09" style="stop-color:rgb(98.039216%,56.078431%,12.941176%);stop-opacity:1;"/>
<stop offset="0.78" style="stop-color:rgb(84.705882%,17.647059%,49.411765%);stop-opacity:1;"/>
</radialGradient>
<radialGradient id="radial1" gradientUnits="userSpaceOnUse" cx="70.652" cy="96.49" fx="70.652" fy="96.49" r="113.963" gradientTransform="matrix(0.294118,0,0,0.294118,0,0)">
<stop offset="0.64" style="stop-color:rgb(54.901961%,22.745098%,66.666667%);stop-opacity:0;"/>
<stop offset="1" style="stop-color:rgb(54.901961%,22.745098%,66.666667%);stop-opacity:1;"/>
</radialGradient>
</defs>
<g id="surface1">
<path style=" stroke:none;fill-rule:nonzero;fill:url(#radial0);" d="M 7.605469 29.894531 C 6.445312 29.882812 5.296875 29.667969 4.210938 29.265625 C 3.414062 28.972656 2.695312 28.503906 2.105469 27.894531 C 1.496094 27.308594 1.027344 26.585938 0.734375 25.792969 C 0.332031 24.703125 0.121094 23.554688 0.105469 22.394531 C 0.0195312 20.464844 0 19.886719 0 15 C 0 10.113281 0.0195312 9.535156 0.105469 7.605469 C 0.121094 6.445312 0.332031 5.296875 0.734375 4.210938 C 1.03125 3.414062 1.496094 2.695312 2.105469 2.105469 C 2.695312 1.496094 3.414062 1.027344 4.207031 0.734375 C 5.296875 0.332031 6.445312 0.117188 7.605469 0.105469 C 9.535156 0.0195312 10.117188 0 15 0 C 19.882812 0 20.464844 0.0195312 22.394531 0.105469 C 23.554688 0.121094 24.703125 0.332031 25.792969 0.734375 C 26.585938 1.027344 27.304688 1.496094 27.894531 2.105469 C 28.503906 2.695312 28.972656 3.414062 29.265625 4.207031 C 29.667969 5.296875 29.882812 6.445312 29.894531 7.605469 C 29.980469 9.535156 30 10.113281 30 15 C 30 19.886719 29.980469 20.464844 29.894531 22.394531 C 29.878906 23.554688 29.667969 24.703125 29.265625 25.792969 C 28.648438 27.386719 27.386719 28.648438 25.792969 29.265625 C 24.703125 29.667969 23.554688 29.882812 22.394531 29.894531 C 20.464844 29.980469 19.886719 30 15 30 C 10.113281 30 9.535156 29.984375 7.605469 29.894531 "/>
<path style=" stroke:none;fill-rule:nonzero;fill:url(#radial1);" d="M 7.605469 29.894531 C 6.445312 29.882812 5.296875 29.667969 4.210938 29.265625 C 3.414062 28.972656 2.695312 28.503906 2.105469 27.894531 C 1.496094 27.308594 1.027344 26.585938 0.734375 25.792969 C 0.332031 24.703125 0.121094 23.554688 0.105469 22.394531 C 0.0195312 20.464844 0 19.886719 0 15 C 0 10.113281 0.0195312 9.535156 0.105469 7.605469 C 0.121094 6.445312 0.332031 5.296875 0.734375 4.210938 C 1.03125 3.414062 1.496094 2.695312 2.105469 2.105469 C 2.695312 1.496094 3.414062 1.027344 4.207031 0.734375 C 5.296875 0.332031 6.445312 0.117188 7.605469 0.105469 C 9.535156 0.0195312 10.117188 0 15 0 C 19.882812 0 20.464844 0.0195312 22.394531 0.105469 C 23.554688 0.121094 24.703125 0.332031 25.792969 0.734375 C 26.585938 1.027344 27.304688 1.496094 27.894531 2.105469 C 28.503906 2.695312 28.972656 3.414062 29.265625 4.207031 C 29.667969 5.296875 29.882812 6.445312 29.894531 7.605469 C 29.980469 9.535156 30 10.113281 30 15 C 30 19.886719 29.980469 20.464844 29.894531 22.394531 C 29.878906 23.554688 29.667969 24.703125 29.265625 25.792969 C 28.648438 27.386719 27.386719 28.648438 25.792969 29.265625 C 24.703125 29.667969 23.554688 29.882812 22.394531 29.894531 C 20.464844 29.980469 19.886719 30 15 30 C 10.113281 30 9.535156 29.984375 7.605469 29.894531 "/>
<path style=" stroke:none;fill-rule:nonzero;fill:rgb(100%,100%,100%);fill-opacity:1;" d="M 11.316406 15.0625 C 11.316406 13.011719 12.980469 11.347656 15.03125 11.347656 C 17.082031 11.347656 18.746094 13.011719 18.746094 15.066406 C 18.746094 17.117188 17.082031 18.78125 15.03125 18.777344 C 12.980469 18.777344 11.316406 17.117188 11.316406 15.0625 M 9.308594 15.0625 C 9.308594 18.222656 11.871094 20.785156 15.03125 20.785156 C 18.191406 20.785156 20.753906 18.222656 20.753906 15.0625 C 20.753906 11.902344 18.191406 9.339844 15.03125 9.339844 C 11.871094 9.339844 9.308594 11.902344 9.308594 15.0625 M 19.644531 9.113281 C 19.644531 9.851562 20.242188 10.453125 20.980469 10.453125 C 21.71875 10.453125 22.316406 9.855469 22.316406 9.117188 C 22.316406 8.375 21.71875 7.777344 20.980469 7.777344 C 20.242188 7.777344 19.644531 8.375 19.644531 9.113281 M 10.527344 24.136719 C 9.824219 24.128906 9.121094 24 8.460938 23.753906 C 7.488281 23.378906 6.71875 22.609375 6.34375 21.640625 C 6.097656 20.976562 5.96875 20.277344 5.960938 19.570312 C 5.90625 18.394531 5.898438 18.042969 5.898438 15.066406 C 5.898438 12.089844 5.910156 11.738281 5.960938 10.5625 C 5.96875 9.855469 6.097656 9.15625 6.34375 8.492188 C 6.71875 7.519531 7.488281 6.75 8.460938 6.375 C 9.121094 6.128906 9.824219 6 10.527344 5.992188 C 11.703125 5.9375 12.058594 5.929688 15.03125 5.929688 C 18.007812 5.929688 18.359375 5.941406 19.535156 5.992188 C 20.242188 6.003906 20.941406 6.132812 21.605469 6.375 C 22.578125 6.75 23.347656 7.519531 23.722656 8.492188 C 23.964844 9.15625 24.097656 9.855469 24.105469 10.5625 C 24.15625 11.738281 24.167969 12.089844 24.167969 15.066406 C 24.167969 18.042969 24.15625 18.394531 24.105469 19.570312 C 24.09375 20.277344 23.964844 20.976562 23.722656 21.640625 C 23.347656 22.613281 22.578125 23.378906 21.605469 23.753906 C 20.941406 24 20.242188 24.128906 19.535156 24.136719 C 18.359375 24.191406 18.007812 24.203125 15.03125 24.203125 C 12.054688 24.203125 11.703125 24.191406 10.527344 24.136719 M 10.4375 3.988281 C 9.511719 4.003906 8.597656 4.179688 7.730469 4.503906 C 6.234375 5.082031 5.050781 6.265625 4.472656 7.765625 C 4.148438 8.628906 3.972656 9.546875 3.953125 10.46875 C 3.898438 11.660156 3.886719 12.039062 3.886719 15.066406 C 3.886719 18.089844 3.898438 18.472656 3.953125 19.660156 C 3.972656 20.585938 4.148438 21.5 4.472656 22.367188 C 5.050781 23.863281 6.234375 25.046875 7.730469 25.625 C 8.597656 25.949219 9.511719 26.125 10.4375 26.144531 C 11.625 26.199219 12.003906 26.210938 15.03125 26.210938 C 18.058594 26.210938 18.4375 26.199219 19.625 26.144531 C 20.550781 26.125 21.464844 25.949219 22.332031 25.625 C 23.828125 25.046875 25.011719 23.863281 25.59375 22.367188 C 25.917969 21.5 26.09375 20.585938 26.109375 19.660156 C 26.164062 18.472656 26.175781 18.089844 26.175781 15.066406 C 26.175781 12.039062 26.164062 11.660156 26.109375 10.46875 C 26.09375 9.546875 25.917969 8.628906 25.59375 7.765625 C 25.011719 6.265625 23.832031 5.082031 22.332031 4.503906 C 21.46875 4.179688 20.550781 4.003906 19.628906 3.988281 C 18.4375 3.933594 18.058594 3.917969 15.035156 3.917969 C 12.007812 3.917969 11.625 3.933594 10.4375 3.988281 "/>
</g>
</svg>
