<?xml version="1.0" encoding="UTF-8"?>
<svg xmlns="http://www.w3.org/2000/svg" xmlns:xlink="http://www.w3.org/1999/xlink" width="30px" height="30px" viewBox="0 0 30 30" version="1.1">
<defs>
<filter id="alpha" filterUnits="objectBoundingBox" x="0%" y="0%" width="100%" height="100%">
  <feColorMatrix type="matrix" in="SourceGraphic" values="0 0 0 0 1 0 0 0 0 1 0 0 0 0 1 0 0 0 1 0"/>
</filter>
<mask id="mask0">
  <g filter="url(#alpha)">
<rect x="0" y="0" width="30" height="30" style="fill:rgb(0%,0%,0%);fill-opacity:0.0509804;stroke:none;"/>
  </g>
</mask>
<clipPath id="clip1">
  <rect x="0" y="0" width="30" height="30"/>
</clipPath>
<g id="surface5" clip-path="url(#clip1)">
<path style=" stroke:none;fill-rule:nonzero;fill:rgb(0%,0%,0%);fill-opacity:1;" d="M 18.75 23.125 L 18.75 16.8125 C 18.75 15.757812 18.238281 15.125 17.378906 15.125 C 16.871094 15.125 16.496094 15.414062 16.269531 15.980469 C 16.257812 16.019531 16.242188 16.183594 16.25 16.675781 L 16.25 23.125 L 11.875 23.125 L 11.875 11.25 L 16.25 11.25 L 16.25 11.914062 C 16.890625 11.472656 17.671875 11.25 18.585938 11.25 C 21.429688 11.25 23.125 13.183594 23.125 16.421875 L 23.125 23.125 Z M 6.875 23.125 L 6.875 11.25 L 9.035156 11.25 C 7.785156 11.25 6.875 10.328125 6.875 9.0625 C 6.875 7.796875 7.796875 6.875 9.070312 6.875 C 10.328125 6.875 11.222656 7.769531 11.25 9.050781 C 11.25 10.328125 10.324219 11.25 9.054688 11.25 L 11.25 11.25 L 11.25 23.125 Z M 6.875 23.125 "/>
</g>
<mask id="mask1">
  <g filter="url(#alpha)">
<rect x="0" y="0" width="30" height="30" style="fill:rgb(0%,0%,0%);fill-opacity:0.0705882;stroke:none;"/>
  </g>
</mask>
<clipPath id="clip2">
  <rect x="0" y="0" width="30" height="30"/>
</clipPath>
<g id="surface8" clip-path="url(#clip2)">
<path style=" stroke:none;fill-rule:nonzero;fill:rgb(0%,0%,0%);fill-opacity:1;" d="M 19.0625 22.8125 L 19.0625 16.8125 C 19.0625 15.578125 18.417969 14.8125 17.378906 14.8125 C 16.570312 14.8125 16.171875 15.382812 15.976562 15.863281 C 15.925781 15.988281 15.933594 16.480469 15.9375 16.691406 L 15.9375 22.8125 L 12.1875 22.8125 L 12.1875 11.5625 L 15.9375 11.5625 L 15.9375 12.585938 C 16.433594 12.070312 17.234375 11.5625 18.585938 11.5625 C 21.230469 11.5625 22.8125 13.378906 22.8125 16.421875 L 22.8125 22.8125 Z M 7.1875 22.8125 L 7.1875 11.5625 L 10.9375 11.5625 L 10.9375 22.8125 Z M 9.035156 10.9375 C 7.964844 10.9375 7.1875 10.148438 7.1875 9.0625 C 7.1875 7.976562 7.980469 7.1875 9.070312 7.1875 C 10.148438 7.1875 10.914062 7.957031 10.9375 9.054688 C 10.9375 10.148438 10.144531 10.9375 9.054688 10.9375 Z M 9.035156 10.9375 "/>
</g>
</defs>
<g id="surface1">
<path style=" stroke:none;fill-rule:nonzero;fill:rgb(0%,47.058824%,83.137255%);fill-opacity:1;" d="M 26.25 23.125 C 26.25 24.851562 24.851562 26.25 23.125 26.25 L 6.875 26.25 C 5.148438 26.25 3.75 24.851562 3.75 23.125 L 3.75 6.875 C 3.75 5.148438 5.148438 3.75 6.875 3.75 L 23.125 3.75 C 24.851562 3.75 26.25 5.148438 26.25 6.875 Z M 26.25 23.125 "/>
<use xlink:href="#surface5" mask="url(#mask0)"/>
<use xlink:href="#surface8" mask="url(#mask1)"/>
<path style=" stroke:none;fill-rule:nonzero;fill:rgb(100%,100%,100%);fill-opacity:1;" d="M 7.5 11.875 L 10.625 11.875 L 10.625 22.5 L 7.5 22.5 Z M 9.054688 10.625 L 9.035156 10.625 C 8.101562 10.625 7.5 9.929688 7.5 9.0625 C 7.5 8.175781 8.121094 7.5 9.070312 7.5 C 10.023438 7.5 10.609375 8.175781 10.625 9.0625 C 10.625 9.929688 10.023438 10.625 9.054688 10.625 Z M 22.5 22.5 L 19.375 22.5 L 19.375 16.8125 C 19.375 15.4375 18.609375 14.5 17.378906 14.5 C 16.441406 14.5 15.933594 15.132812 15.6875 15.746094 C 15.597656 15.964844 15.625 16.570312 15.625 16.875 L 15.625 22.5 L 12.5 22.5 L 12.5 11.875 L 15.625 11.875 L 15.625 13.511719 C 16.074219 12.8125 16.78125 11.875 18.585938 11.875 C 20.824219 11.875 22.5 13.28125 22.5 16.421875 Z M 22.5 22.5 "/>
</g>
</svg>
